# xmcd
#
# Track frame offsets: 
#        150
#        17594
#        41503
#        65863
#        88411
#        110287
#        131559
#        154869
#        190051
#        219266
#
# Disc length: 3212 seconds
#
# Revision: 0
# Processed by: cddbd v1.5.2PL0 Copyright (c) Steve Scherf et al.
# Submitted via: ExactAudioCopy v0.99pb4
#
DISCID=870c8a0a
DTITLE=Chris Rea - The road to hell and back CD1
DYEAR=1900
DGENRE=Blues
TTITLE0=Jazzy blue
TTITLE1=That´s the way it goes
TTITLE2=Where the blues come from
TTITLE3=Josephine
TTITLE4=Work gang
TTITLE5=Head out on the highway
TTITLE6=Easy rider
TTITLE7=´til the morning
TTITLE8=Stoney road
TTITLE9=KKK Blues
EXTD=
EXTT0=
EXTT1=
EXTT2=
EXTT3=
EXTT4=
EXTT5=
EXTT6=
EXTT7=
EXTT8=
EXTT9=
PLAYORDER=
